<?xml version="1.0" encoding="utf-8"?>
<!-- Uploaded to: SVG Repo, www.svgrepo.com, Generator: SVG Repo Mixer Tools -->
<svg width="800px" height="800px" viewBox="0 0 1024 1024" class="icon"  version="1.1" xmlns="http://www.w3.org/2000/svg"><path d="M132.369067 90.453333h784.543289v783.018667H132.369067z" fill="#247396" /><path d="M724.161422 90.453333L140.288 873.472h-7.930311V637.155556L540.046222 90.453333zM870.468267 90.453333l-583.907556 783.018667h-79.1552L791.267556 90.453333z" fill="#3D8AA5" /><path d="M102.536533 250.140444h127.317334v154.544356H102.536533zM102.536533 559.217778h127.317334v154.555733H102.536533z" fill="#4091AD" /><path d="M378.049422 481.814756a153.1904 152.894578 0 1 0 306.3808 0 153.1904 152.894578 0 1 0-306.3808 0Z" fill="#E6E6E6" /><path d="M209.783467 873.472h161.723733v58.379378H209.783467zM677.774222 873.472h161.712356v58.379378H677.774222z" fill="#247396" /><path d="M916.912356 75.093333H316.666311a15.36 15.36 0 1 0 0 30.72h584.874667v752.298667H147.751822V729.133511h38.058667v75.639467c0 8.476444 6.883556 15.36 15.382755 15.36h88.655645a15.36 15.36 0 1 0 0-30.72h-73.261511v-60.290845h13.277866c8.4992 0 15.394133-6.872178 15.394134-15.36V559.217778c0-8.465067-6.883556-15.36-15.394134-15.36h-13.277866V420.0448h13.277866c8.4992 0 15.394133-6.872178 15.394134-15.36V250.140444c0-8.476444-6.883556-15.36-15.394134-15.36h-13.277866V174.4896h616.129422v82.955378c0 8.476444 6.883556 15.36 15.382756 15.36 8.4992 0 15.394133-6.872178 15.394133-15.36v-98.304a15.36 15.36 0 0 0-15.394133-15.36H201.193244c-8.4992 0-15.394133 6.872178-15.394133 15.36v75.639466H147.751822V105.801956h115.279645a15.36 15.36 0 1 0 0-30.708623H132.369067a15.36 15.36 0 0 0-15.382756 15.36v144.338489h-14.449778c-8.4992 0-15.394133 6.872178-15.394133 15.36v154.544356c0 8.476444 6.883556 15.36 15.394133 15.36h14.449778v123.835733h-14.449778c-8.4992 0-15.394133 6.872178-15.394133 15.36v154.544356c0 8.476444 6.883556 15.36 15.394133 15.36h14.449778V873.472c0 8.476444 6.883556 15.36 15.394133 15.36h62.031645v43.030756c0 8.476444 6.883556 15.36 15.382755 15.36h161.723734a15.36 15.36 0 0 0 15.382755-15.36V888.832h275.478756v43.030756c0 8.476444 6.883556 15.36 15.394133 15.36h161.723734c8.4992 0 15.405511-6.872178 15.405511-15.36V888.832h62.020266c8.4992 0 15.394133-6.872178 15.394134-15.36V90.453333A15.405511 15.405511 0 0 0 916.912356 75.093333zM117.919289 574.577778h96.551822v123.847111H117.919289V574.577778z m0-185.252978V265.489067h96.551822v123.835733H117.919289z m29.832533 30.72h38.058667v123.824356H147.751822V420.0448z m208.384 496.446578h-130.958222v-27.670756h130.958222v27.670756z m467.979378 0h-130.958222v-27.670756h130.958222v27.670756z" fill="" /><path d="M328.0896 804.772978c0 8.476444 6.883556 15.36 15.382756 15.36h504.615822c8.487822 0 15.394133-6.872178 15.394133-15.36v-493.795556a15.36 15.36 0 0 0-15.394133-15.36c-8.487822 0-15.382756 6.872178-15.382756 15.36v478.446934h-489.244444a15.36 15.36 0 0 0-15.371378 15.348622z" fill="" /><path d="M699.824356 481.826133c0-92.7744-75.616711-168.254578-168.573156-168.254577-92.956444 0-168.584533 75.480178-168.584533 168.254577s75.616711 168.2432 168.584533 168.2432c92.945067 0 168.573156-75.4688 168.573156-168.2432z m-218.589867 0a50.016711 50.016711 0 0 1 100.010667 0 50.028089 50.028089 0 0 1-50.005334 49.914311 50.039467 50.039467 0 0 1-50.005333-49.914311z m65.388089 79.132445a80.611556 80.611556 0 0 0 29.7984-12.333511l40.709689 40.641422a137.170489 137.170489 0 0 1-70.508089 29.218133v-57.526044z m51.552711-34.042311c5.973333-8.829156 10.24-18.898489 12.356267-29.730134h57.639822a136.863289 136.863289 0 0 1-29.2864 70.382934l-40.709689-40.6528z m12.356267-60.450134a80.600178 80.600178 0 0 0-12.356267-29.730133l40.709689-40.641422a136.692622 136.692622 0 0 1 29.2864 70.371555H610.531556z m-34.110578-51.438933a80.611556 80.611556 0 0 0-29.7984-12.333511v-57.537422a137.261511 137.261511 0 0 1 70.508089 29.218133l-40.709689 40.6528z m-60.563911-12.333511a80.554667 80.554667 0 0 0-29.787023 12.333511l-40.721066-40.641422a137.261511 137.261511 0 0 1 70.508089-29.218134v57.526045z m-51.541334 34.042311a80.213333 80.213333 0 0 0-12.356266 29.730133h-57.639823a136.760889 136.760889 0 0 1 29.275023-70.371555l40.721066 40.641422z m-12.356266 60.438756a80.213333 80.213333 0 0 0 12.356266 29.730133l-40.721066 40.630044a136.726756 136.726756 0 0 1-29.275023-70.371555l57.639823 0.011378z m34.110577 51.450311a80.748089 80.748089 0 0 0 29.787023 12.333511v57.537422a137.454933 137.454933 0 0 1-70.508089-29.218133l40.721066-40.6528z" fill="" /></svg>